<svg width="60" height="61" viewBox="0 0 60 61" fill="none" xmlns="http://www.w3.org/2000/svg">
<path d="M30.0144 60.689C13.4656 60.7146 0 47.2614 0 30.7059C0 14.1697 13.3841 0.773936 29.9552 0.724441C46.4992 0.674945 59.976 14.1106 60 30.6772C60.0224 47.2311 46.6015 60.6635 30.0144 60.689ZM2.57326 30.7012C2.56686 45.8691 14.7635 58.077 29.9648 58.1185C45.147 58.1584 57.4235 45.9074 57.4267 30.7107C57.4299 15.5332 45.2557 3.3493 30.0336 3.29661C14.8609 3.24392 2.57965 15.5012 2.57326 30.7012ZM20.3111 35.614C19.082 32.392 17.5445 29.3137 15.8471 26.3136C15.7496 26.1412 15.6473 25.9687 15.5322 25.8059C15.1055 25.204 14.4246 25.0108 13.862 25.3221C13.2962 25.6366 13.0517 26.4046 13.3745 27.0465C13.9307 28.1481 14.5477 29.2179 15.1007 30.3212C17.1066 34.3287 19.0565 38.357 19.7182 42.8659C19.7693 43.2155 20.1929 43.7169 20.5061 43.7696C20.9281 43.8398 21.422 43.5716 21.8599 43.3864C22.0149 43.3209 22.0932 43.075 22.2099 42.9122C26.423 37.0398 30.9542 31.4388 36.2797 26.5244C39.1311 23.8947 42.1439 21.4902 45.8919 20.2001C46.699 19.9223 46.9595 19.199 46.6542 18.4007C46.3857 17.6966 45.8423 17.489 44.984 17.7701C42.1359 18.7025 39.6905 20.3374 37.3793 22.1863C32.399 26.1683 28.2003 30.9071 24.2461 35.8742C23.3575 36.9903 22.5008 38.1335 21.6042 39.2958C21.1582 38.0121 20.7651 36.8019 20.3111 35.614Z" fill="black"/>
</svg>
