<svg width="88" height="61" viewBox="0 0 88 61" fill="none" xmlns="http://www.w3.org/2000/svg">
<path d="M88 53.8402C87.5591 54.5858 86.8927 54.8119 86.0479 54.7793C84.9037 54.7345 83.7574 54.7874 82.6111 54.7589C82.1149 54.7467 81.8729 54.8832 81.6945 55.3924C80.5319 58.7189 77.7083 60.7152 74.2879 60.6888C70.9865 60.6643 68.1506 58.6089 67.0556 55.3843C66.8793 54.8689 66.6291 54.7569 66.139 54.7589C57.662 54.7711 49.183 54.7711 40.706 54.7589C40.2118 54.7589 39.9719 54.873 39.7935 55.3945C38.6698 58.6639 35.8256 60.6908 32.4668 60.6888C29.1162 60.6867 26.2536 58.6436 25.1463 55.3843C24.9659 54.8506 24.7096 54.7589 24.2277 54.7589C20.5326 54.7711 16.8375 54.7691 13.1444 54.765C11.5696 54.763 11.2107 54.3576 11.1595 52.7911C11.059 49.7315 12.2278 47.3848 14.9366 45.8366C15.1335 45.7246 15.3262 45.4109 15.3303 45.1888C15.3611 43.3412 15.3488 41.4936 15.3488 39.5014C15.0043 39.5014 14.7049 39.5014 14.4055 39.5014C10.3105 39.5014 6.21353 39.5014 2.11857 39.5014C1.88891 39.5014 1.65925 39.5095 1.43163 39.4973C0.5704 39.4484 -0.00580672 38.8841 0.000344956 38.108C0.00649663 37.3278 0.576551 36.7595 1.45419 36.7534C3.80208 36.733 6.15202 36.7452 8.4999 36.7432C10.7309 36.7432 12.9599 36.7432 15.2688 36.7432C15.2688 35.8286 15.2688 34.9689 15.2688 33.9585C14.4178 33.9585 13.5422 33.9585 12.6687 33.9585C11.7808 33.9585 10.8929 33.9728 10.005 33.9524C8.97563 33.93 8.39738 33.4187 8.39533 32.5713C8.39328 31.7219 8.97974 31.1882 9.99476 31.178C11.7357 31.1596 13.4787 31.1739 15.2831 31.1739C15.2831 30.2389 15.2831 29.3752 15.2831 28.4035C14.9674 28.4035 14.6618 28.4035 14.3563 28.4035C10.2613 28.4035 6.16432 28.4035 2.06936 28.4035C1.83969 28.4035 1.61003 28.4137 1.38242 28.3974C0.5704 28.3363 0.0146989 27.7883 0.000344956 27.0448C-0.0160595 26.2626 0.553995 25.6637 1.41728 25.6555C3.76517 25.6331 6.11511 25.6453 8.46299 25.6453C9.85532 25.6453 11.2477 25.6453 12.845 25.6453C12.4821 25.3459 12.2791 25.1687 12.0679 25.0037C7.3762 21.3492 5.59632 15.1076 7.67353 9.58316C9.80406 3.91811 15.2237 0.442896 21.4656 0.742343C27.0718 1.01123 32.2125 5.18923 33.6766 10.7687C33.9022 11.6324 34.2795 11.7811 35.0731 11.7771C41.7743 11.7485 48.4776 11.7506 55.1788 11.7648C58.9375 11.773 61.8062 13.9221 62.6285 17.3545C62.7987 18.0655 62.8458 18.8171 62.8561 19.5525C62.8868 21.5407 62.8663 23.5309 62.8663 25.6453C63.2293 25.6453 63.5307 25.6453 63.8342 25.6453C67.2709 25.6453 70.7076 25.6474 74.1444 25.6453C78.1553 25.6413 81.2516 27.3178 83.4601 30.632C84.9734 32.9034 86.4826 35.1767 87.9959 37.448C88 42.9134 88 48.3768 88 53.8402ZM28.1258 25.6453C28.6569 25.6453 28.9296 25.6453 29.2023 25.6453C31.5502 25.6453 33.9002 25.6351 36.248 25.6535C37.1298 25.6616 37.6814 26.2177 37.6814 27.0142C37.6834 27.8087 37.1318 28.3485 36.2562 28.3994C35.9999 28.4137 35.7416 28.4035 35.4832 28.4035C30.041 28.4035 24.5988 28.4035 19.1587 28.4035C18.8532 28.4035 18.5476 28.4035 18.2257 28.4035C18.2257 29.3731 18.2257 30.2368 18.2257 31.1719C18.5948 31.1719 18.9044 31.1719 19.2141 31.1719C22.05 31.1719 24.8859 31.1617 27.7198 31.178C28.704 31.1841 29.3377 31.7708 29.3254 32.5856C29.3131 33.3495 28.741 33.8872 27.8551 33.9504C27.6275 33.9667 27.3978 33.9585 27.1682 33.9585C24.5045 33.9585 21.8408 33.9585 19.1772 33.9585C18.8716 33.9585 18.5661 33.9585 18.2195 33.9585C18.2195 34.9282 18.2195 35.7919 18.2195 36.7432C18.7527 36.7432 19.2325 36.7432 19.7124 36.7432C21.6809 36.7432 22.3514 37.1017 22.3309 38.1447C22.3125 39.1632 21.6665 39.5034 19.7493 39.5034C19.2428 39.5034 18.7363 39.5034 18.2052 39.5034C18.2052 41.3958 18.2052 43.1803 18.2052 45.0197C32.149 45.0197 46.0518 45.0197 59.9976 45.0197C60.0181 44.7509 60.053 44.5288 60.053 44.3068C60.055 35.9712 60.0673 27.6335 60.0468 19.2979C60.0407 16.391 58.1562 14.5515 55.2547 14.5495C48.5247 14.5434 41.7928 14.5475 35.0628 14.5495C34.786 14.5495 34.5092 14.5719 34.2118 14.5862C33.9637 19.1797 31.9972 22.7996 28.1258 25.6453ZM9.61336 14.2847C9.60515 20.2308 14.4732 25.1177 20.4321 25.1462C26.4382 25.1748 31.3985 20.296 31.4149 14.3417C31.4313 8.38741 26.4894 3.47607 20.4895 3.48218C14.5183 3.48625 9.62156 8.35074 9.61336 14.2847ZM62.9012 51.9844C63.9654 51.9844 64.9374 51.9498 65.9032 51.9967C66.5307 52.0272 66.7583 51.8357 66.9121 51.1961C67.7302 47.7779 70.8348 45.3803 74.3515 45.362C77.86 45.3436 80.9358 47.7168 81.8401 51.1431C81.9098 51.41 81.9857 51.6748 82.0554 51.9213C83.1217 51.9213 84.1367 51.9213 85.1702 51.9213C85.1907 51.7522 85.2153 51.6442 85.2153 51.5342C85.2174 47.2972 85.2276 43.0581 85.203 38.821C85.201 38.4828 85.0308 38.108 84.8401 37.8127C83.6077 35.8978 82.3528 33.9952 81.0937 32.0967C79.4533 29.6217 77.128 28.4055 74.1526 28.4035C70.6892 28.4015 67.2238 28.4015 63.7604 28.4055C63.4835 28.4055 63.2067 28.4279 62.9012 28.4422C62.9012 36.3012 62.9012 44.0847 62.9012 51.9844ZM40.3287 51.9376C46.751 51.9376 53.3517 51.9376 60.0037 51.9376C60.0037 50.5728 60.0037 49.2548 60.0037 47.9226C52.7427 47.9226 45.533 47.9226 38.4688 47.9226C39.0758 49.2324 39.6786 50.532 40.3287 51.9376ZM32.3971 57.9326C35.1284 57.9652 37.3943 55.753 37.4025 53.0457C37.4087 50.3915 35.2556 48.2118 32.5837 48.165C29.8195 48.1161 27.5721 50.2631 27.5332 52.9887C27.4963 55.645 29.715 57.9021 32.3971 57.9326ZM74.374 48.165C71.655 48.165 69.4548 50.3324 69.4466 53.0193C69.4384 55.6939 71.6489 57.9163 74.3351 57.9347C77.0808 57.953 79.2995 55.7509 79.2892 53.0172C79.2769 50.3039 77.1095 48.1629 74.374 48.165ZM13.981 51.9315C17.6167 51.9315 21.2031 51.9315 24.607 51.9315C25.2714 50.5055 25.8825 49.1916 26.5099 47.8451C23.7971 47.8451 21.0309 47.8268 18.2647 47.8513C15.8409 47.8696 14.2107 49.4096 13.981 51.9315ZM22.3391 8.74389C22.3371 7.50129 21.888 6.89221 20.9714 6.87388C20.022 6.85554 19.5647 7.47277 19.5627 8.77852C19.5606 10.2269 19.5955 11.6772 19.5422 13.1236C19.5257 13.5676 19.3515 14.0606 19.1033 14.4334C18.4102 15.4743 17.6351 16.4603 16.901 17.4747C16.2777 18.3343 16.3166 19.1471 16.9913 19.6584C17.6844 20.184 18.5128 19.9681 19.1772 19.0819C19.5524 18.5808 19.8764 18.0349 20.2947 17.5745C21.9167 15.7799 22.903 13.7937 22.3432 11.3004C22.3391 10.4489 22.3412 9.59538 22.3391 8.74389ZM76.0555 42.2697C74.5401 42.2697 73.0248 42.2819 71.5094 42.2677C70.3344 42.2575 69.8362 41.7747 69.83 40.6034C69.8157 37.5641 69.8157 34.5248 69.83 31.4856C69.8362 30.2756 70.3468 29.7846 71.5771 29.7907C72.6905 29.7968 73.8142 29.7602 74.9133 29.9048C76.9003 30.1676 78.4177 31.2309 79.4348 32.9441C80.538 34.8019 81.6187 36.6719 82.6686 38.5603C83.6815 40.3814 82.607 42.2208 80.5196 42.2616C79.0309 42.2942 77.5442 42.2697 76.0555 42.2697ZM72.6967 39.4504C75.1102 39.4504 77.4827 39.4504 79.9639 39.4504C78.9878 37.7454 78.0753 36.1178 77.128 34.5106C76.1888 32.9176 74.6611 32.2882 72.6967 32.6671C72.6967 34.9078 72.6967 37.1608 72.6967 39.4504ZM32.4258 50.7744C31.1934 50.7989 30.2194 51.7848 30.2133 53.0172C30.2051 54.2904 31.2057 55.3008 32.475 55.3008C33.7382 55.3008 34.745 54.2802 34.7327 53.0131C34.7204 51.7502 33.6889 50.7479 32.4258 50.7744ZM76.6543 53.0559C76.6645 51.8052 75.6372 50.7744 74.3802 50.7724C73.156 50.7724 72.1471 51.7502 72.1123 52.9724C72.0754 54.2313 73.076 55.2763 74.3392 55.2987C75.59 55.3252 76.644 54.3046 76.6543 53.0559Z" fill="black"/>
</svg>
