<svg width="57" height="61" viewBox="0 0 57 61" fill="none" xmlns="http://www.w3.org/2000/svg">
<path d="M28.5129 0.724426C29.7618 1.35085 31.0029 1.99294 32.2612 2.60057C39.9927 6.3372 47.7258 10.0691 55.4667 13.787C56.0763 14.0798 56.3223 14.4682 56.3207 15.1494C56.305 25.5434 56.305 35.9358 56.3207 46.3298C56.3223 47.0157 56.0606 47.3963 55.4557 47.686C46.5913 51.9473 37.7331 56.2226 28.8796 60.5074C28.375 60.7517 27.9504 60.7485 27.4443 60.5042C18.608 56.2273 9.76705 51.9614 0.918263 47.7126C0.266395 47.3994 -0.00155983 47.0032 7.16207e-06 46.2703C0.018811 35.9155 0.018811 25.5622 7.16207e-06 15.2074C-0.00155983 14.4792 0.253859 14.0751 0.908861 13.7603C9.7075 9.5398 18.4936 5.29577 27.2813 1.05487C27.4678 0.9656 27.6339 0.835617 27.8094 0.724426C28.0444 0.724426 28.2795 0.724426 28.5129 0.724426ZM2.93811 14.7501C3.2092 14.8863 3.38 14.974 3.55394 15.0586C9.03683 17.7053 14.5197 20.3519 20.0026 23.0001C20.6702 23.3227 21.3455 23.6312 21.999 23.982C22.444 24.2201 22.5552 24.6461 22.3688 25.0908C22.1745 25.5559 21.7655 25.6828 21.2954 25.5575C21.0917 25.5027 20.9021 25.3899 20.7078 25.296C15.0306 22.5554 9.35493 19.8132 3.67773 17.0741C3.06817 16.7797 2.45391 16.4931 1.7707 16.169C1.7707 16.4399 1.7707 16.6294 1.7707 16.8189C1.7707 26.3922 1.77541 35.9656 1.75817 45.5389C1.7566 46.0291 1.92897 46.2437 2.34736 46.4457C9.94569 50.0977 17.5377 53.7655 25.1314 57.43C25.813 57.7589 26.4978 58.08 27.2813 58.4527C27.2813 58.1332 27.2813 57.9077 27.2813 57.6822C27.2813 54.5563 27.2813 51.4305 27.2813 48.3046C27.2813 41.8963 27.2766 35.4879 27.2907 29.0796C27.2923 28.627 27.1826 28.3639 26.7422 28.1932C26.1797 27.9755 25.6438 27.6889 25.1016 27.418C24.5406 27.1377 24.3322 26.6522 24.5516 26.1792C24.7725 25.7032 25.2755 25.5606 25.8553 25.8284C26.4931 26.1244 27.1105 26.4658 27.7592 26.7289C27.9927 26.8229 28.3343 26.8276 28.5631 26.7289C29.4406 26.3499 30.2915 25.9099 31.1517 25.4949C32.2063 24.9859 33.2562 24.4675 34.3186 23.9758C34.8185 23.744 35.3105 23.9225 35.5221 24.3548C35.7368 24.7933 35.566 25.2756 35.0959 25.5465C34.9783 25.6139 34.8498 25.664 34.726 25.7235C33.0212 26.5473 31.3241 27.3882 29.6083 28.1854C29.1726 28.3874 29.0269 28.6301 29.0285 29.1078C29.0426 38.6608 29.0394 48.2153 29.041 57.7683C29.041 57.9703 29.0614 58.1708 29.0771 58.4433C29.2996 58.3384 29.4375 58.2757 29.5738 58.2084C37.7472 54.2666 45.919 50.3186 54.1003 46.3924C54.5014 46.1998 54.5532 45.9555 54.5532 45.5781C54.5453 35.9859 54.5469 26.3922 54.5469 16.8001C54.5469 16.6168 54.5469 16.4321 54.5469 16.2191C54.4168 16.2567 54.3588 16.2645 54.3087 16.288C51.7937 17.4985 49.2834 18.7169 46.7621 19.9118C46.4299 20.0685 46.4393 20.2987 46.4393 20.5743C46.4408 23.7973 46.4236 27.0218 46.4534 30.2447C46.4597 30.9777 46.187 31.3848 45.5304 31.6887C43.5654 32.5985 41.6239 33.5601 39.6715 34.4982C38.6435 34.993 38.1029 34.6532 38.1013 33.5116C38.0982 30.3277 38.0888 27.1424 38.1123 23.9586C38.1154 23.4512 37.9462 23.2115 37.4949 22.997C34.4785 21.5687 31.4777 20.1092 28.4722 18.659C23.0269 16.028 17.5785 13.397 12.1254 10.7786C11.9217 10.6799 11.613 10.5922 11.4359 10.6768C8.63098 12.0001 5.83861 13.3532 2.93811 14.7501ZM20.9021 6.08506C21.1747 6.22914 21.3393 6.32154 21.5116 6.40454C29.5754 10.2962 37.6406 14.1847 45.6981 18.0874C46.0225 18.244 46.2638 18.2158 46.5646 18.0686C48.6863 17.035 50.8159 16.0139 52.9407 14.9866C53.0661 14.9255 53.1789 14.8362 53.3497 14.7282C50.012 13.1198 46.7448 11.5444 43.4777 9.96734C38.5229 7.57752 33.568 5.18458 28.6085 2.80573C28.4064 2.70863 28.0992 2.63346 27.9206 2.71803C25.6077 3.80644 23.309 4.92461 20.9021 6.08506ZM44.0637 19.2698C43.7691 19.1132 43.5858 19.0098 43.3978 18.919C41.5534 18.0279 39.7059 17.1399 37.8616 16.2488C31.7112 13.2811 25.5607 10.3119 19.4056 7.35044C19.1925 7.24708 18.8807 7.1218 18.7052 7.20167C17.0676 7.95964 15.4505 8.75834 13.7425 9.58835C15.2734 10.3291 16.7104 11.0244 18.1489 11.7182C24.9151 14.9834 31.6814 18.2487 38.4539 21.5014C38.6717 21.6063 39.0024 21.6831 39.1982 21.5938C40.7919 20.8609 42.3683 20.0857 44.0637 19.2698ZM39.8924 32.384C40.0146 32.3511 40.0898 32.3417 40.1557 32.3104C41.5628 31.6354 42.9621 30.9448 44.3787 30.2902C44.7172 30.1335 44.6874 29.8908 44.6874 29.6214C44.6874 26.9263 44.6874 24.2326 44.6858 21.5374C44.6858 21.3699 44.6686 21.2023 44.6545 20.9705C44.4273 21.0692 44.2518 21.1381 44.0825 21.2195C42.8524 21.8099 41.6286 22.4207 40.3876 22.9876C39.9974 23.1661 39.8501 23.376 39.8548 23.8176C39.8783 26.4737 39.8658 29.1281 39.8673 31.7842C39.8658 31.9705 39.8814 32.1569 39.8924 32.384ZM3.87674 37.1448C3.79682 37.4173 3.96449 37.7869 4.09298 38.0845C4.14939 38.2129 4.37504 38.2755 4.53331 38.3507C6.91983 39.5049 9.30792 40.6575 11.6976 41.807C12.373 42.1312 12.8775 42.0309 13.1173 41.5345C13.3586 41.0349 13.1314 40.5526 12.4811 40.2378C10.0601 39.0648 7.63594 37.8981 5.21025 36.7329C5.03788 36.6499 4.8467 36.6077 4.52704 36.5012C4.31863 36.6922 3.95509 36.877 3.87674 37.1448ZM9.04623 42.7795C7.71273 42.0967 6.36041 41.4499 5.00184 40.8188C4.53644 40.6027 4.08201 40.8 3.8689 41.2307C3.65736 41.6598 3.79682 42.1061 4.24655 42.3786C4.44555 42.4992 4.66337 42.59 4.87334 42.6918C5.9765 43.2258 7.07496 43.7724 8.18752 44.2892C8.87543 44.6087 9.53043 44.2156 9.51476 43.3339C9.42545 43.2211 9.28598 42.9032 9.04623 42.7795Z" fill="black"/>
</svg>
