<svg width="58" height="61" viewBox="0 0 58 61" fill="none" xmlns="http://www.w3.org/2000/svg">
<path d="M55.0296 60.689C37.6765 60.689 20.3215 60.689 2.96845 60.689C2.9413 60.6636 2.91804 60.6246 2.88507 60.6128C0.841482 59.925 0.00194245 58.7741 0.00194245 56.6304C3.55844e-06 43.247 3.55844e-06 29.8655 0.00194245 16.4821C0.00194245 13.6135 1.67133 11.9291 4.50211 11.9252C7.30962 11.9232 10.1171 11.9389 12.9247 11.9076C13.2911 11.9037 13.7235 11.7395 14.0066 11.505C15.9047 9.93007 17.7699 8.316 19.6448 6.71367C21.83 4.84753 24.0151 2.97943 26.2041 1.1172C26.8614 0.558339 27.2608 0.593513 27.8308 1.24617C27.984 1.42204 28.1314 1.60377 28.2826 1.78159C29.0039 2.63747 29.7251 3.4914 30.4639 4.37073C31.571 3.42496 32.6296 2.51437 33.6941 1.60768C34.6519 0.792828 34.9408 0.820185 35.7376 1.76791C38.4017 4.93937 41.0754 8.10301 43.722 11.2881C44.104 11.7474 44.482 11.9897 45.0928 11.9369C45.7268 11.8822 46.3705 11.9076 47.0084 11.9467C48.9493 12.0678 50.5372 13.5041 50.8048 15.4406C50.9095 16.2085 50.8494 16.9979 50.8571 17.7776C50.8629 18.4537 50.8591 19.1298 50.8591 19.8489C51.4601 19.8489 51.9797 19.8489 52.5013 19.8489C53.0248 19.8489 53.5464 19.845 54.0699 19.8489C56.4818 19.8685 57.9884 21.3731 57.9961 23.8001C58.0078 27.292 58 30.7839 58 34.2758C58 41.6681 58 49.0623 57.9981 56.4546C57.9981 56.7672 58 57.0799 57.9632 57.3886C57.7828 58.905 56.9685 59.9269 55.5589 60.4741C55.3786 60.5464 55.2041 60.6187 55.0296 60.689ZM56.1406 32.2553C56.1658 32.1264 56.1871 32.0697 56.1871 32.015C56.1891 29.1855 56.2007 26.356 56.1852 23.5265C56.1794 22.4576 55.4019 21.7014 54.3297 21.6916C52.8581 21.6779 51.3864 21.6936 49.9148 21.6936C34.0954 21.6916 18.2741 21.6897 2.45464 21.6858C2.25106 21.6858 2.04553 21.6858 1.80705 21.6858C1.80705 21.9398 1.80705 22.1137 1.80705 22.2857C1.80705 33.7776 1.80705 45.2714 1.80705 56.7633C1.80705 58.137 2.51475 58.862 3.87585 58.862C20.6259 58.8639 37.376 58.8639 54.1261 58.862C55.4833 58.862 56.1891 58.1331 56.191 56.7555C56.1929 53.8869 56.191 51.0183 56.191 48.1498C56.191 47.9641 56.191 47.7785 56.191 47.5694C55.8711 47.5694 55.6404 47.5694 55.4096 47.5694C50.5101 47.5694 45.6105 47.5987 40.7128 47.5577C35.8579 47.5166 32.3039 42.8034 33.4982 38.0589C34.3707 34.5944 37.3644 32.2651 41.0095 32.2534C45.8121 32.2378 50.6148 32.2495 55.4155 32.2495C55.6462 32.2553 55.8769 32.2553 56.1406 32.2553ZM7.19717 19.7161C7.2088 19.761 7.22043 19.8059 7.23207 19.8509C7.45698 19.8509 7.68383 19.8509 7.90874 19.8509C15.8873 19.8509 23.8639 19.8001 31.8424 19.89C33.5486 19.9095 34.902 19.5597 36.0634 18.2915C36.6974 17.5998 37.4846 17.0507 38.2214 16.4234C34.4114 11.8939 30.6481 7.41909 26.8711 2.92863C20.2827 8.55049 13.739 14.1333 7.19717 19.7161ZM56.1639 34.1098C50.8494 34.1098 45.6027 34.0414 40.358 34.1352C37.2985 34.1899 34.8031 37.2675 35.0998 40.3413C35.4061 43.5167 37.756 45.7209 40.961 45.7423C45.8974 45.7736 50.8358 45.7521 55.7722 45.7482C55.9002 45.7482 56.0262 45.7208 56.1639 45.7052C56.1639 41.8264 56.1639 37.9905 56.1639 34.1098ZM31.6408 5.75226C31.759 5.90273 31.8385 6.00825 31.9238 6.10986C34.6111 9.30867 37.3004 12.5075 39.9877 15.7083C40.5868 16.4215 40.548 16.8201 39.8345 17.4298C39.0667 18.0864 38.2989 18.739 37.5311 19.3956C37.3993 19.5089 37.2752 19.634 37.0445 19.8489C38.8185 19.8489 40.4239 19.8528 42.0294 19.8431C42.1709 19.8431 42.3415 19.7825 42.4481 19.6907C43.6057 18.7175 44.7516 17.7346 45.9362 16.7244C42.1437 12.2105 38.3765 7.72783 34.5956 3.22956C33.5797 4.09716 32.6354 4.90224 31.6408 5.75226ZM1.83807 19.8509C2.46433 19.8509 3.06345 19.8958 3.65287 19.8353C4.00769 19.7981 4.41486 19.6828 4.68049 19.4601C6.79582 17.6956 8.88594 15.8978 10.9799 14.1079C11.0846 14.018 11.168 13.9047 11.3154 13.7425C8.79869 13.7425 6.38089 13.721 3.96504 13.7522C2.90834 13.764 1.94277 14.5905 1.86328 15.6633C1.76052 17.0331 1.83807 18.4166 1.83807 19.8509ZM49.0695 19.8118C49.0695 18.6433 49.0714 17.5334 49.0695 16.4254C49.0636 14.485 47.8732 13.4865 45.8625 13.8109C46.481 14.5495 47.0743 15.2569 47.6696 15.9642C48.2881 16.7009 48.2609 17.1211 47.5416 17.7385C46.768 18.4029 45.9924 19.0654 45.1238 19.8118C46.5004 19.8118 47.7452 19.8118 49.0695 19.8118ZM45.5465 39.9173C45.5484 42.3755 43.5649 44.3901 41.1278 44.4019C38.7003 44.4136 36.6838 42.3989 36.6703 39.9524C36.6567 37.4727 38.6789 35.4248 41.1239 35.4405C43.5727 35.4561 45.5446 37.4512 45.5465 39.9173ZM41.0929 42.567C42.5722 42.5748 43.7569 41.3926 43.753 39.9114C43.7491 38.4654 42.5703 37.2773 41.1316 37.2675C39.6542 37.2578 38.4754 38.4419 38.4812 39.929C38.487 41.3984 39.6348 42.5592 41.0929 42.567Z" fill="black"/>
</svg>
